<?xml version="1.0"?>
<svg xmlns="http://www.w3.org/2000/svg" width="100px" height="100px" viewBox="0 0 512 512">
    <g><path d="M496,368H448V184a40.04,40.04,0,0,0-40-40H360V80a8,8,0,0,0-8-8H160a8,8,0,0,0-8,8v64H104a40.04,40.04,0,0,0-40,40V368H16a8,8,0,0,0-8,8v32a40.04,40.04,0,0,0,40,40H464a40.04,40.04,0,0,0,40-40V376A8,8,0,0,0,496,368ZM168,88H344V304H168ZM376,320a8,8,0,0,0,0-16H360V184h48V344H104V184h48V304H136a8,8,0,0,0,0,16ZM80,184a24.032,24.032,0,0,1,24-24h48v8H96a8,8,0,0,0-8,8V352a8,8,0,0,0,8,8H416a8,8,0,0,0,8-8V176a8,8,0,0,0-8-8H360v-8h48a24.032,24.032,0,0,1,24,24V368H80ZM293.75,384l-4,16h-67.5l-4-16ZM488,408a24.032,24.032,0,0,1-24,24H48a24.032,24.032,0,0,1-24-24V384H201.75l6.49,25.94A8,8,0,0,0,216,416h80a8,8,0,0,0,7.76-6.06L310.25,384H488Z"/><path d="M88,392H40a8,8,0,0,0,0,16H88a8,8,0,0,0,0-16Z"/><path d="M120,392h-8a8,8,0,0,0,0,16h8a8,8,0,0,0,0-16Z"/><path d="M184,144H328a8,8,0,0,0,8-8V104a8,8,0,0,0-8-8H184a8,8,0,0,0-8,8v32A8,8,0,0,0,184,144Zm8-32H320v16H192Z"/><path d="M184,168H328a8,8,0,0,0,0-16H184a8,8,0,0,0,0,16Z"/><path d="M184,192H328a8,8,0,0,0,0-16H184a8,8,0,0,0,0,16Z"/><path d="M184,216h64a8,8,0,0,0,0-16H184a8,8,0,0,0,0,16Z"/><path d="M280,216a8,8,0,0,0,0-16h-8a8,8,0,0,0,0,16Z"/><path d="M184,288h48a8,8,0,0,0,8-8V232a8,8,0,0,0-8-8H184a8,8,0,0,0-8,8v48A8,8,0,0,0,184,288Zm8-48h32v32H192Z"/><path d="M328,224H256a8,8,0,0,0,0,16h72a8,8,0,0,0,0-16Z"/><path d="M328,248H256a8,8,0,0,0,0,16h72a8,8,0,0,0,0-16Z"/><path d="M280,272H256a8,8,0,0,0,0,16h24a8,8,0,0,0,0-16Z"/><path d="M312,272h-8a8,8,0,0,0,0,16h8a8,8,0,0,0,0-16Z"/></g>
</svg>
