<?xml version="1.0" encoding="iso-8859-1"?>
<!-- Generator: Adobe Illustrator 19.0.0, SVG Export Plug-In . SVG Version: 6.00 Build 0)  -->
<svg version="1.1" id="Capa_1" width="100px" height="100px" fill="black" xmlns="http://www.w3.org/2000/svg" xmlns:xlink="http://www.w3.org/1999/xlink" x="0px" y="0px"
	 viewBox="0 0 64 64" style="enable-background:new 0 0 64 64;" xml:space="preserve">
<g>
	<path d="M63,56h-3V19h-0.026C60.609,18.162,61,17.13,61,16v-3V1c0-0.552-0.448-1-1-1H4C3.448,0,3,0.448,3,1v12v3
		c0,1.13,0.391,2.162,1.026,3H4v37H1c-0.552,0-1,0.448-1,1v2c0,2.757,2.243,5,5,5h54c2.757,0,5-2.243,5-5v-2
		C64,56.448,63.552,56,63,56z M5,14h6v2c0,1.654-1.346,3-3,3s-3-1.346-3-3V14z M45,12V2h6v10H45z M43,12h-6V2h6V12z M35,12h-6V2h6
		V12z M27,12h-6V2h6V12z M19,12h-6V2h6V12z M13,14h6v2c0,1.654-1.346,3-3,3s-3-1.346-3-3V14z M21,14h6v2c0,1.654-1.346,3-3,3
		s-3-1.346-3-3V14z M29,14h6v2c0,1.654-1.346,3-3,3s-3-1.346-3-3V14z M37,14h6v2c0,1.654-1.346,3-3,3s-3-1.346-3-3V14z M45,14h6v2
		c0,1.654-1.346,3-3,3s-3-1.346-3-3V14z M53,14h6v2c0,1.654-1.346,3-3,3s-3-1.346-3-3V14z M59,12h-6V2h6V12z M5,2h6v10H5V2z
		 M6,20.576C6.614,20.846,7.288,21,8,21c1.641,0,3.088-0.806,4-2.031C12.912,20.194,14.359,21,16,21s3.088-0.806,4-2.031
		C20.912,20.194,22.359,21,24,21s3.088-0.806,4-2.031C28.912,20.194,30.359,21,32,21c1.641,0,3.088-0.806,4-2.031
		C36.912,20.194,38.359,21,40,21s3.088-0.806,4-2.031C44.912,20.194,46.359,21,48,21s3.088-0.806,4-2.031
		C52.912,20.194,54.359,21,56,21c0.712,0,1.386-0.154,2-0.424V56h-2V23c0-0.552-0.448-1-1-1H9c-0.552,0-1,0.448-1,1v7v2v24H6V20.576
		z M10,32h44v24H10V32z M10,30v-6h44v6H10z M62,59c0,1.654-1.346,3-3,3H5c-1.654,0-3-1.346-3-3v-1h3h4h46h4h3V59z"/>
	<path d="M14,46h13c0.552,0,1-0.448,1-1v-9c0-0.552-0.448-1-1-1H14c-0.552,0-1,0.448-1,1v9C13,45.552,13.448,46,14,46z M15,37h5v2h2
		v-2h4v7H15V37z"/>
	<path d="M30.293,37.293C30.105,37.48,30,37.735,30,38v10H13v2h2.351C15.133,50.456,15,50.961,15,51.5c0,1.93,1.57,3.5,3.5,3.5
		s3.5-1.57,3.5-3.5c0-0.539-0.133-1.044-0.351-1.5h2.702C24.133,50.456,24,50.961,24,51.5c0,1.93,1.57,3.5,3.5,3.5s3.5-1.57,3.5-3.5
		c0-0.539-0.133-1.044-0.351-1.5H31c0.552,0,1-0.448,1-1V38.414l2.707-2.707l-1.414-1.414L30.293,37.293z M20,51.5
		c0,0.827-0.673,1.5-1.5,1.5S17,52.327,17,51.5s0.673-1.5,1.5-1.5S20,50.673,20,51.5z M29,51.5c0,0.827-0.673,1.5-1.5,1.5
		S26,52.327,26,51.5s0.673-1.5,1.5-1.5S29,50.673,29,51.5z"/>
	<rect x="12" y="26" width="2" height="2"/>
	<rect x="16" y="26" width="2" height="2"/>
	<rect x="20" y="26" width="2" height="2"/>
	<rect x="24" y="26" width="20" height="2"/>
	<path d="M50.778,48.439c0.238-0.238,0.34-0.579,0.272-0.908c-0.067-0.329-0.296-0.603-0.608-0.728l-7.071-2.829
		c-0.371-0.147-0.796-0.062-1.079,0.222c-0.283,0.283-0.37,0.707-0.222,1.079l2.829,7.071c0.125,0.312,0.398,0.541,0.728,0.608
		c0.067,0.014,0.134,0.021,0.201,0.021c0.263,0,0.518-0.104,0.707-0.293l1.414-1.414l3.035,3.035l1.414-1.414l-3.035-3.035
		L50.778,48.439z M46.194,50.196l-1.399-3.497l3.497,1.399L46.194,50.196z"/>
	<path d="M40,39c1.654,0,3,1.346,3,3h2c0-2.757-2.243-5-5-5s-5,2.243-5,5s2.243,5,5,5v-2c-1.654,0-3-1.346-3-3S38.346,39,40,39z"/>
</g>
<g>
</g>
<g>
</g>
<g>
</g>
<g>
</g>
<g>
</g>
<g>
</g>
<g>
</g>
<g>
</g>
<g>
</g>
<g>
</g>
<g>
</g>
<g>
</g>
<g>
</g>
<g>
</g>
<g>
</g>
</svg>
